<?xml version="1.0"?>
<svg xmlns="http://www.w3.org/2000/svg" id="b06ec48e-7faf-4c6c-99c4-f363e83de536" data-name="Layer 1" viewBox="0 0 446.31 127.49">
  <title>shopify-color</title>
  <path d="M95.87,24.24a1.2,1.2,0,0,0-1.09-1l-10-.75-7.37-7.33c-.73-.73-2.15-.51-2.71-.35L71,16C68.75,9.57,64.83,3.7,57.94,3.7l-.58,0C55.39,1.13,53,0,50.87,0,34.82,0,27.15,20.07,24.74,30.27L13.51,33.75c-3.48,1.09-3.59,1.2-4,4.48C9.11,40.72,0,111.18,0,111.18l71,13.3,38.47-8.32S96,24.86,95.87,24.24ZM67,17.17,61,19c0-.42,0-.84,0-1.3A29.45,29.45,0,0,0,59.6,8C63.15,8.48,65.52,12.52,67,17.17ZM55.2,8.82a29.8,29.8,0,0,1,1.63,10.82c0,.24,0,.47,0,.7L44.42,24.17C46.81,15,51.28,10.5,55.2,8.82ZM50.43,4.31A3.63,3.63,0,0,1,52.49,5c-5.15,2.42-10.66,8.52-13,20.7l-9.81,3C32.42,19.45,38.9,4.31,50.43,4.31Z" fill="#95bf47"/>
  <path d="M94.79,23.23l-10-.75-7.37-7.33a1.82,1.82,0,0,0-1-.47L71,124.48l38.46-8.32S96,24.86,95.87,24.24A1.2,1.2,0,0,0,94.79,23.23Z" fill="#5e8e3e"/>
  <path d="M57.94,44.48,53.19,58.59a21.82,21.82,0,0,0-9.25-2.22c-7.47,0-7.84,4.69-7.84,5.87,0,6.44,16.8,8.91,16.8,24,0,11.88-7.53,19.52-17.69,19.52-12.19,0-18.42-7.58-18.42-7.58L20.05,87.4s6.41,5.5,11.81,5.5a4.77,4.77,0,0,0,5-4.81c0-8.41-13.78-8.78-13.78-22.59,0-11.63,8.34-22.88,25.19-22.88C54.73,42.62,57.94,44.48,57.94,44.48Z" fill="#fff"/>
  <path id="b5ceeb1a-79d7-41f1-8f07-c8df9035c000" data-name="s" d="M154.31,70.93c-3.84-2.08-5.81-3.84-5.81-6.25,0-3.07,2.74-5,7-5a25.06,25.06,0,0,1,9.43,2.08L168.45,51s-3.23-2.52-12.71-2.52c-13.21,0-22.36,7.56-22.36,18.2,0,6,4.27,10.63,10,13.92,4.6,2.63,6.25,4.49,6.25,7.23S147.29,93,143,93a29.55,29.55,0,0,1-12.39-3.29l-3.73,10.74s5.56,3.73,14.91,3.73c13.59,0,23.35-6.69,23.35-18.74C165.16,78.93,160.23,74.33,154.31,70.93Z"/>
  <path id="c284b6da-a604-4f00-a337-c692a3f03e4f" data-name="h" d="M208.45,48.35c-6.69,0-11.95,3.18-16,8l-.22-.11L198,25.88H182.92l-14.69,77.28h15.13l5-26.42c2-10,7.12-16.11,11.95-16.11,3.4,0,4.71,2.3,4.71,5.59a34.57,34.57,0,0,1-.66,6.69l-5.7,30.25h15.13l5.92-31.24a56.51,56.51,0,0,0,1.1-9.87C220.84,53.5,216.35,48.35,208.45,48.35Z"/>
  <path id="6cd17c36-d504-4362-9144-e43b5d4aefca" data-name="o" d="M255,48.35c-18.2,0-30.25,16.44-30.25,34.75,0,11.73,7.23,21.15,20.83,21.15,17.87,0,29.92-16,29.92-34.75C275.54,58.66,269.18,48.35,255,48.35Zm-7.45,44.28c-5.15,0-7.34-4.38-7.34-9.86,0-8.66,4.49-22.8,12.71-22.8,5.37,0,7.12,4.6,7.12,9.1C260.08,78.39,255.59,92.64,247.59,92.64Z"/>
  <path id="8f5bce85-5e8e-4c94-adb5-13b4022ef5d7" data-name="p" d="M314.23,48.35c-10.21,0-16,9-16,9H298l.88-8.11H285.51c-.66,5.48-1.86,13.81-3.07,20.06l-10.52,55.35H287l4.16-22.36h.33s3.11,2,8.88,2c17.76,0,29.38-18.2,29.38-36.61C329.8,57.45,325.3,48.35,314.23,48.35Zm-14.47,44.5a9.6,9.6,0,0,1-6.25-2.19L296,76.52c1.75-9.43,6.69-15.67,11.95-15.67,4.6,0,6,4.27,6,8.33C314,78.93,308.2,92.85,299.76,92.85Z"/>
  <path id="3eed514f-30e1-4089-9ac2-cac4c1a2720d" data-name="dot" d="M351.39,26.65a8.63,8.63,0,0,0-8.66,8.77c0,4.49,2.85,7.56,7.12,7.56h.22A8.54,8.54,0,0,0,359,34.21,7.19,7.19,0,0,0,351.39,26.65Z"/>
  <polygon id="4bdebf8f-3fc8-47b6-8874-70ac9a9f4615" data-name="i" points="330.24 103.16 345.36 103.16 355.67 49.56 340.43 49.56 330.24 103.16"/>
  <path id="df431b6b-88b2-48e8-a44c-dea25252c6ad" data-name="f" d="M394.14,49.45H383.62l.55-2.52c.88-5.15,3.95-9.76,9-9.76a15.76,15.76,0,0,1,4.82.77l3-11.84s-2.63-1.32-8.22-1.32a22.46,22.46,0,0,0-14.8,5c-5.15,4.38-7.56,10.74-8.77,17.1l-.44,2.52h-7l-2.19,11.4h7l-8,42.31h15.13l8-42.31h10.41Z"/>
  <path id="2a770eab-84da-455b-9749-873dc8380555" data-name="y" d="M430.53,49.56s-9.46,23.82-13.7,36.83h-.22c-.29-4.19-3.73-36.83-3.73-36.83H397l9.1,49.22a3.22,3.22,0,0,1-.33,2.52,25.88,25.88,0,0,1-8.22,9.1,32.72,32.72,0,0,1-8.55,4.28l4.16,12.83a34.55,34.55,0,0,0,14.8-8.22c6.91-6.47,13.26-16.44,19.84-30l18.52-39.68Z"/>
</svg>
