<?xml version="1.0"?>
<svg xmlns="http://www.w3.org/2000/svg" id="a0d4d08c-62d7-481f-aeda-dbe4c6a5903a" data-name="Layer 1" viewBox="0 0 479.9 108.22">
  <title>bigcommerce-color</title>
  <path d="M132,52.37a18.28,18.28,0,0,1,15.23,7.38V1.4A1.39,1.39,0,0,0,145,.27L72.94,53h1.91c7.49,0,11.32,4.77,11.32,10a9,9,0,0,1-5,8.42.6.6,0,0,0,0,1.11,9.74,9.74,0,0,1,5.72,9.1c0,6-3.89,10.67-11.44,10.67H54.94a.78.78,0,0,1-.78-.78V66.76L.49,106a1.22,1.22,0,0,0,.72,2.21H146a1.22,1.22,0,0,0,1.22-1.22V87.14A21.7,21.7,0,0,1,132,93c-11.55,0-21-8-21-20.34S120.47,52.37,132,52.37ZM103.31,91.62a.71.71,0,0,1-.71.71H95.65a.71.71,0,0,1-.71-.71V53.74a.71.71,0,0,1,.71-.71h6.94a.71.71,0,0,1,.71.71Z" fill="#34313f"/>
  <path d="M63.31,68.64H73c2.83,0,4.6-1.59,4.6-4.13s-1.77-4.13-4.6-4.13H62.93a.4.4,0,0,0-.4.4v7.08A.78.78,0,0,0,63.31,68.64Z" fill="#34313f"/>
  <path d="M63.31,85H73.38c3.12,0,5-1.65,5-4.48,0-2.47-1.77-4.48-5-4.48H63.31a.78.78,0,0,0-.78.78v7.4A.77.77,0,0,0,63.31,85Z" fill="#34313f"/>
  <path d="M140.91,64.33A11.25,11.25,0,0,0,132,59.8c-7.19,0-12.38,5.48-12.38,12.91S124.83,85.62,132,85.62a13.24,13.24,0,0,0,8.09-2.81.65.65,0,0,0,.22-.5V78.52a.62.62,0,0,0-.62-.62h-8.92a.83.83,0,0,1-.83-.83V71.42a.83.83,0,0,1,.83-.83h16.47v-8.9L142,64.57A.86.86,0,0,1,140.91,64.33Z" fill="#34313f"/>
  <path d="M153.38,72.68c0-12.14,8.7-20.34,19.9-20.34a16.81,16.81,0,0,1,14.81,8.18.66.66,0,0,1-.25.94l-4.47,2.44a.64.64,0,0,1-.84-.23,11.14,11.14,0,0,0-9.24-5.19c-7.51,0-13.08,5.89-13.08,14.2s5.57,14.21,13.08,14.21a11.26,11.26,0,0,0,9.25-5.21.65.65,0,0,1,.83-.24l4.51,2.34a.66.66,0,0,1,.26,1C185.2,89.19,180.56,93,173.28,93,162.08,93,153.38,84.76,153.38,72.68Z" fill="#34313f"/>
  <path d="M192,72.68c0-9.78,5.58-17.39,14-19.65,14.29-3.82,27.4,9.57,24.29,24.51C228.38,86.71,221.06,93,211.37,93,200,93,192,84.41,192,72.68Zm32,0c0-8.13-5-14.2-12.58-14.2s-12.58,6.07-12.58,14.2,4.89,14.21,12.58,14.21S223.94,80.75,223.94,72.68Z" fill="#34313f"/>
  <path d="M271.55,91.84V62L259.61,92.1a.33.33,0,0,1-.31.21h-2.5a.33.33,0,0,1-.31-.21L244.5,62V91.84a.46.46,0,0,1-.46.46h-6a.46.46,0,0,1-.46-.46V53.45a.46.46,0,0,1,.46-.46h8.63a.93.93,0,0,1,.87.59l10.49,27,10.43-27a.93.93,0,0,1,.87-.59H278a.46.46,0,0,1,.46.46V91.84a.46.46,0,0,1-.46.46h-6A.46.46,0,0,1,271.55,91.84Z" fill="#34313f"/>
  <path d="M339.46,91.6V53.7a.71.71,0,0,1,.71-.71h25.52a.71.71,0,0,1,.71.71v4.65a.71.71,0,0,1-.71.71H347.07a.71.71,0,0,0-.71.71v8.72a.71.71,0,0,0,.71.71h18.21a.71.71,0,0,1,.71.71v4.65a.71.71,0,0,1-.71.71H347.07a.71.71,0,0,0-.71.71v9.54a.71.71,0,0,0,.71.71h18.62a.71.71,0,0,1,.71.71V91.6a.71.71,0,0,1-.71.71H340.18A.71.71,0,0,1,339.46,91.6Z" fill="#34313f"/>
  <path d="M398.46,92,390.2,78a.7.7,0,0,0-.61-.35H383.8a.7.7,0,0,0-.7.7V91.6a.7.7,0,0,1-.7.7h-5.49a.7.7,0,0,1-.7-.7V53.7a.7.7,0,0,1,.7-.7h16.57c7.78,0,12.91,5,12.91,12.32,0,6.47-4,10.24-8.38,11.35a.7.7,0,0,0-.46,1.05L406,91.23a.7.7,0,0,1-.6,1.07h-6.34A.7.7,0,0,1,398.46,92Zm.85-26.71c0-3.77-2.83-6.19-6.72-6.19H383.8a.7.7,0,0,0-.7.7V70.85a.7.7,0,0,0,.7.7h8.79C396.48,71.56,399.31,69.08,399.31,65.25Z" fill="#34313f"/>
  <path d="M453,91.61V53.68a.69.69,0,0,1,.69-.69H479.2a.69.69,0,0,1,.69.69v4.68a.69.69,0,0,1-.69.69H460.55a.69.69,0,0,0-.69.69v8.75a.69.69,0,0,0,.69.69h18.24a.69.69,0,0,1,.69.69v4.68a.69.69,0,0,1-.69.69H460.55a.69.69,0,0,0-.69.69v9.58a.69.69,0,0,0,.69.69H479.2a.69.69,0,0,1,.69.69v4.68a.69.69,0,0,1-.69.69H453.65A.69.69,0,0,1,453,91.61Z" fill="#34313f"/>
  <path d="M411.43,72.51c0-12.14,8.7-20.34,19.9-20.34a16.81,16.81,0,0,1,14.81,8.18.66.66,0,0,1-.25.94l-4.47,2.44a.64.64,0,0,1-.84-.23,11.14,11.14,0,0,0-9.24-5.19c-7.51,0-13.08,5.89-13.08,14.2s5.57,14.21,13.08,14.21a11.26,11.26,0,0,0,9.25-5.21.65.65,0,0,1,.83-.24l4.51,2.34a.66.66,0,0,1,.26,1c-2.93,4.46-7.56,8.28-14.85,8.28C420.13,92.85,411.43,84.6,411.43,72.51Z" fill="#34313f"/>
  <path d="M322.47,91.84V62L310.53,92.1a.33.33,0,0,1-.31.21h-2.5a.33.33,0,0,1-.31-.21L295.42,62V91.84a.46.46,0,0,1-.46.46h-6a.46.46,0,0,1-.46-.46V53.45A.46.46,0,0,1,289,53h8.63a.93.93,0,0,1,.87.59l10.49,27,10.43-27a.93.93,0,0,1,.87-.59h8.63a.46.46,0,0,1,.46.46V91.84a.46.46,0,0,1-.46.46h-6A.46.46,0,0,1,322.47,91.84Z" fill="#34313f"/>
</svg>
