<?xml version="1.0"?>
<svg xmlns="http://www.w3.org/2000/svg" id="a87ae2f1-907d-4afe-8776-a15dcc3961f2" data-name="Layer 1" viewBox="0 0 50 50">
  <title>ups-icon</title>
  <path d="M4.69,28.63c0,8.45,3.66,13,10.24,16.14s10.38,4.8,10.38,4.8,3.79-1.63,10.38-4.8,10.24-7.69,10.24-16.14V5A48.57,48.57,0,0,0,25.1.43,45.85,45.85,0,0,0,4.7,5Z" fill="#ffb600" stroke="#280000" stroke-miterlimit="10" stroke-width="0.5"/>
  <path d="M25.31,46.7c-1.24-.54-4.48-2-9.25-4.29-6.34-3.06-8.93-7.14-8.93-14.07V15.65c9.43-9.43,24.24-11,36.36-9.52V28.34c0,6.93-2.58,11-8.93,14.07C29.79,44.7,26.55,46.16,25.31,46.7Z" fill="#280000"/>
  <path d="M38.5,28.45c0-1.1-.62-1.69-2.14-2.59-2.86-1.7-3.39-3.11-3.4-5a4.56,4.56,0,0,1,4.64-4.53,5.84,5.84,0,0,1,3.76,1.17v3a4.55,4.55,0,0,0-3-1.45c-1,0-2,.41-2,1.66s1,1.78,2.27,2.55c2.87,1.73,3.39,3.25,3.33,5.28a4.71,4.71,0,0,1-5,4.71,7.49,7.49,0,0,1-3.82-1c0-1.08,0-2.16,0-3.24a5.45,5.45,0,0,0,3.33,1.41,1.85,1.85,0,0,0,2.06-2" fill="#f8bd00"/>
  <path d="M14,30.33a2.93,2.93,0,0,0,1.65-.42c0-4.41,0-8.84,0-13.24l3.49,0c0,5.07,0,10.2,0,15.27a9.09,9.09,0,0,1-5.25,1.38c-3.42,0-5.1-1.93-5.1-5.61V16.75l3.41-.05c0,3.71,0,7.44,0,11.16C12.14,28.84,12.37,30.32,14,30.33Z" fill="#f8bd00"/>
  <path d="M25.52,16.28a8.42,8.42,0,0,0-4.74,1.26c0,7.62,0,15.39,0,22.86H24.3V33.09a5.75,5.75,0,0,0,1.59.2c3.9,0,6.16-3.53,6.16-8.68S29.73,16.28,25.52,16.28Zm-.08,14.15a3.19,3.19,0,0,1-1.14-.22V19.36a3.07,3.07,0,0,1,1.25-.25c2.05,0,2.9,1.64,2.9,5.59S27.47,30.43,25.44,30.43Z" fill="#f8bd00"/>
</svg>
